<svg width="329" height="389" viewBox="0 0 329 389" fill="none" xmlns="http://www.w3.org/2000/svg">
<circle cx="156.5" cy="62" r="13" fill="#89DF00"/>
<circle cx="111.5" cy="181" r="6" fill="#89DF00"/>
<circle cx="194.75" cy="132.75" r="9.25" fill="#89DF00"/>
<path d="M149.152 228.112C131.09 210.485 121.375 155.979 146.091 131.397C155.131 122.375 166.708 116.307 179.296 114C175.1 118.879 172.776 125.089 172.758 131.521C172.758 142.814 175.313 153.522 206.185 187.605C231.211 215.337 237.82 230.809 237.732 260.359C237.714 265.265 237.12 270.144 235.957 274.908C235.514 259.995 229.446 245.801 218.969 235.138C189.942 205.898 162.911 192.875 159.07 164.061C154.519 192.698 181.638 208.373 211.57 236.282C229.499 253.111 233.181 279.024 223.405 300.227C220.512 306.552 216.503 312.318 211.57 317.233C189.126 339.589 152.736 339.589 130.282 317.233C129.448 316.417 128.082 314.918 127.417 314.155C118.208 303.873 112.202 290.531 109.648 274.793C104.848 243.601 94.0251 234.739 91 231.74C110.375 231.74 117.286 259.312 118.67 271.031C120.533 284.125 125.172 297.228 134.665 307.785L134.789 307.927L134.931 308.069C148.681 321.669 170.895 321.589 184.548 307.901C191.095 301.336 194.768 292.447 194.741 283.185C194.981 273.941 191.228 265.043 184.433 258.745C166.069 242.696 160.755 239.458 149.152 228.112Z" fill="#24AE1D"/>
<path d="M177.045 263.686C182.296 268.814 185.259 275.831 185.277 283.15C185.41 298.595 172.946 311.218 157.439 311.352C149.881 311.414 142.624 308.451 137.292 303.11C109.161 271.661 128.652 212.942 128.652 212.942C140.663 241.88 150.031 236.761 177.045 263.686Z" fill="#89DF00"/>
<path d="M107.01 7.5H218.51C221.685 7.5 224.26 10.0744 224.26 13.25C224.26 13.8784 224.119 14.2686 223.937 14.585C223.725 14.9531 223.329 15.4295 222.607 15.9727C217.047 20.1574 208.76 27.4161 208.76 38.3477V84.6846C208.76 95.0814 211.579 105.284 216.917 114.206L310.89 271.277C339.801 319.602 304.986 381 248.674 381H80.1201C24.2001 381 -10.6673 320.37 17.457 272.037L109.458 113.931C114.568 105.15 117.26 95.1713 117.26 85.0117V38.0098C117.26 27.3251 109.527 20.0641 103.413 15.8955C102.444 15.2346 101.875 14.6452 101.577 14.2012C101.331 13.8345 101.26 13.5696 101.26 13.25C101.26 10.1737 103.676 7.66189 106.714 7.50781L107.01 7.5Z" stroke="#24AE1D" stroke-width="15" stroke-linejoin="round"/>
<path d="M275.073 254C278.988 254 282.543 256.285 284.169 259.846L296.277 286.362C312.758 322.455 286.379 363.5 246.701 363.5H82.2988C42.621 363.5 16.2418 322.455 32.7226 286.362L44.8305 259.846C47.5 254 53.9267 254 53.9267 254H71.3434C83.6037 254 94.5633 262.053 96.4301 274.17V274.17C99.5034 293.076 106.728 309.105 117.805 321.458C118.605 322.374 120.248 324.175 121.251 325.156C128.205 332.07 136.27 337.204 144.873 340.558C153.493 344.396 162.852 346.5 172.635 346.5C211.851 346.5 242 309.5 246.486 268.833V268.833C247.83 260.746 254.176 254 262.374 254H275.073Z" fill="#89DF00"/>
</svg>
